<svg id="Layer_1" data-name="Layer 1" xmlns="http://www.w3.org/2000/svg" viewBox="0 0 391.92 792.39"><defs><style>.cls-1{fill:none;stroke:#1a1a1a;stroke-miterlimit:10;stroke-width:16px;}.cls-2{fill:#1a1a1a;}</style></defs><title>5Z</title><path class="cls-1" d="M658.39,899.51l-290.95.69a41.67,41.67,0,0,1-41.76-41.57L324,166.25a41.67,41.67,0,0,1,41.57-41.76l290.95-.69a41.67,41.67,0,0,1,41.76,41.57L700,857.75A41.67,41.67,0,0,1,658.39,899.51Z" transform="translate(-316.04 -115.8)"/><path class="cls-2" d="M440.39,131.44a20.62,20.62,0,0,1,11.05,16.4,11.13,11.13,0,0,0,9.81,10.34h101a14.08,14.08,0,0,0,8.2-5.88,13.77,13.77,0,0,0,2.14-7.49,14.4,14.4,0,0,1,10.87-13.37Z" transform="translate(-316.04 -115.8)"/><path class="cls-2" d="M333.44,838.45c.09,2.39.87,16,12.26,25.79a35.91,35.91,0,0,0,20.95,8.43H659.51a35.46,35.46,0,0,0,21.07-8.91C691.4,854,692,840.83,692,838.45v20.14a33.81,33.81,0,0,1-7.86,22.1c-9.09,10.7-21.67,11.56-23.84,11.67l-294.49.87a34.84,34.84,0,0,1-23.63-10.94,34.33,34.33,0,0,1-8.87-22Z" transform="translate(-316.04 -115.8)"/></svg>