<svg id="Layer_1" data-name="Layer 1" xmlns="http://www.w3.org/2000/svg" viewBox="0 0 391.92 792.39"><defs><style>.cls-1{fill:none;stroke:#1a1a1a;stroke-miterlimit:10;stroke-width:16px;}.cls-2{fill:#1a1a1a;}</style></defs><title>BazzleLess</title><path class="cls-1" d="M658.39,899.51l-290.95.69a41.67,41.67,0,0,1-41.76-41.57L324,166.25a41.67,41.67,0,0,1,41.57-41.76l290.95-.69a41.67,41.67,0,0,1,41.76,41.57L700,857.75A41.67,41.67,0,0,1,658.39,899.51Z" transform="translate(-316.04 -115.8)"/><path class="cls-2" d="M333.61,847.24a33.18,33.18,0,0,0,12.26,24,37.52,37.52,0,0,0,20.94,7.85H659.54a37,37,0,0,0,21.06-8.29A32.5,32.5,0,0,0,692,847.24V866a30.08,30.08,0,0,1-7.85,20.58c-9.09,10-21.67,10.77-23.83,10.87L366,898.25c-2.34-.1-14.38-.81-23.62-10.18a30.71,30.71,0,0,1-8.86-20.54Q333.54,857.38,333.61,847.24Z" transform="translate(-316.04 -115.8)"/></svg>