<?xml version="1.0" encoding="utf-8"?>
<!-- Generator: Adobe Illustrator 24.0.1, SVG Export Plug-In . SVG Version: 6.00 Build 0)  -->
<svg version="1.1" id="Layer_1" xmlns="http://www.w3.org/2000/svg" xmlns:xlink="http://www.w3.org/1999/xlink" x="0px" y="0px"
	 viewBox="0 0 391.9 792.4" style="enable-background:new 0 0 391.9 792.4;" xml:space="preserve">
<style type="text/css">
	.st0{fill:none;stroke:#1A1A1A;stroke-width:16;stroke-miterlimit:10;}
	.st1{fill:#1A1A1A;}
	.st2{fill-rule:evenodd;clip-rule:evenodd;fill:url(#SVGID_1_);}
	.st3{fill:#1A1A1A;stroke:#1A1A1A;stroke-width:2;stroke-miterlimit:10;}
</style>
<title>5Z</title>
<path class="st0" d="M342.4,783.7l-291,0.7c-23,0-41.7-18.6-41.8-41.6L8,50.4c0-23,18.6-41.7,41.6-41.8l291-0.7
	c23,0,41.7,18.6,41.8,41.6L384,742C384,765,365.4,783.7,342.4,783.7L342.4,783.7z"/>
<path class="st1" d="M17.4,722.7c0.1,2.4,0.9,16,12.3,25.8c5.9,5,13.2,7.9,21,8.4h292.9c7.8-0.6,15.2-3.7,21.1-8.9
	c10.8-9.8,11.4-22.9,11.4-25.3v20.1c0.1,8.1-2.7,15.9-7.9,22.1c-9.1,10.7-21.7,11.6-23.8,11.7l-294.5,0.9c-9-0.5-17.5-4.4-23.6-10.9
	c-5.5-6-8.6-13.8-8.9-22L17.4,722.7z"/>
<linearGradient id="SVGID_1_" gradientUnits="userSpaceOnUse" x1="196.778" y1="546.8867" x2="196.778" y2="705.5226" gradientTransform="matrix(1 0 0 1 0 -230)">
	<stop  offset="0" style="stop-color:#158FFF"/>
	<stop  offset="0.9427" style="stop-color:#00FFE0"/>
</linearGradient>
<path class="st2" d="M206.7,375.2c2.9,3.7-0.1,10.4-1.1,12.6c-8.9,20.3-43.9,31.2-74.6,45.7c-37.5,17.7-60,41.1-59.3,42
	c0.6,0.9,30.2-25.3,76.2-39.4c14.7-4.5,57.9-6.3,89.1-25.6c12.5-7.7,27.5-17.9,40.7-36.4c12.8-18,23-43,37.3-42.5
	c3.3,0.1,6.3,1.5,6.8,0.5c1.1-2.1-10.6-14.8-22.6-15.2c-18.5-0.7-28,26.4-45.7,31.5c-25.7,8.3-37.8-22.4-80.4-14.7
	c-29.7,7.9-26.2,40-56.7,51.5c-16.7,6.3-33.1,1.1-33.6,3.7c-0.8,4,30.4,22,57.2,12.6c17.7-6.2,24.2-21.1,49.6-27.3
	C201,371.4,205.1,373,206.7,375.2z"/>
<path class="st3" d="M103,15.5c2.8,0,5.4,0.7,7.5,2.1c9.4,6.2-0.1,22.9,9.2,28.5c1.6,0.8,3.3,1.4,5.1,1.5h140.5
	c1.9,0,3.6-0.3,5.1-1.1c8.9-4.8-0.6-21.6,8.9-28.5c1.9-1.3,4.1-2.1,6.5-2.4L103,15.5z"/>
</svg>
