<?xml version="1.0" encoding="utf-8"?>
<!-- Generator: Adobe Illustrator 24.0.1, SVG Export Plug-In . SVG Version: 6.00 Build 0)  -->
<svg version="1.1" id="Layer_1" xmlns="http://www.w3.org/2000/svg" xmlns:xlink="http://www.w3.org/1999/xlink" x="0px" y="0px"
	 viewBox="0 0 391.9 791.2" style="enable-background:new 0 0 391.9 791.2;" xml:space="preserve">
<style type="text/css">
	.st0{fill:none;stroke:#1A1A1A;stroke-width:16;stroke-miterlimit:10;}
	.st1{fill:#1A1A1A;stroke:#1A1A1A;stroke-width:2;stroke-miterlimit:10;}
	.st2{fill-rule:evenodd;clip-rule:evenodd;fill:url(#SVGID_1_);}
</style>
<title>m10</title>
<path class="st0" d="M43.1,8h305.8C368.3,8,384,23.7,384,43.1v705c0,19.4-15.7,35.1-35.1,35.1H43.1C23.7,783.2,8,767.5,8,748.1v-705
	C8,23.7,23.7,8,43.1,8z"/>
<path class="st1" d="M124.9,13.2c2.2,0,4.3,0.7,6,2.1c7.5,6.2-0.1,22.9,7.3,28.5c1.3,0.8,2.6,1.4,4.1,1.5h111.9
	c1.5,0,2.9-0.3,4.1-1.1c7.1-4.8-0.5-21.6,7.1-28.5c1.5-1.3,3.3-2.1,5.2-2.4L124.9,13.2z"/>
<linearGradient id="SVGID_1_" gradientUnits="userSpaceOnUse" x1="196.378" y1="547.0867" x2="196.378" y2="705.7226" gradientTransform="matrix(1 0 0 1 0 -230)">
	<stop  offset="0" style="stop-color:#158FFF"/>
	<stop  offset="0.9427" style="stop-color:#00FFE0"/>
</linearGradient>
<path class="st2" d="M206.3,375.4c2.9,3.7-0.1,10.4-1.1,12.6c-8.9,20.3-43.9,31.2-74.6,45.7c-37.5,17.7-60,41.1-59.3,42
	s30.2-25.3,76.2-39.4c14.7-4.5,57.9-6.3,89.1-25.6c12.5-7.7,27.5-17.9,40.7-36.4c12.8-18,23-43,37.3-42.5c3.3,0.1,6.3,1.5,6.8,0.5
	c1.1-2.1-10.6-14.8-22.6-15.2c-18.5-0.7-28,26.4-45.7,31.5c-25.7,8.3-37.8-22.4-80.4-14.7c-29.7,7.9-26.2,40-56.7,51.5
	c-16.7,6.3-33.1,1.1-33.6,3.7c-0.8,4,30.4,22,57.2,12.6c17.7-6.2,24.2-21.1,49.6-27.3C200.5,371.6,204.6,373.3,206.3,375.4z"/>
</svg>
