<svg id="Layer_1" data-name="Layer 1" xmlns="http://www.w3.org/2000/svg" viewBox="0 0 391.92 792.39"><defs><style>.cls-1{fill:none;stroke:#1a1a1a;stroke-miterlimit:10;stroke-width:16px;}.cls-2{fill:#1a1a1a;}</style></defs><title>m3</title><path class="cls-1" d="M658.39,903.09l-290.95.69a41.67,41.67,0,0,1-41.76-41.57L324,169.84a41.67,41.67,0,0,1,41.57-41.76l290.95-.69A41.67,41.67,0,0,1,698.32,169L700,861.33A41.67,41.67,0,0,1,658.39,903.09Z" transform="translate(-316.04 -119.39)"/><path class="cls-2" d="M33.5,8H352.84a31.08,31.08,0,0,1,31.08,31.08V81.69a0,0,0,0,1,0,0H8a0,0,0,0,1,0,0V33.5A25.5,25.5,0,0,1,33.5,8Z"/><path class="cls-2" d="M349.54,836.86H668.88A31.08,31.08,0,0,1,700,867.94v35.84a0,0,0,0,1,0,0H324a0,0,0,0,1,0,0V862.37A25.5,25.5,0,0,1,349.54,836.86Z" transform="translate(707.96 1621.25) rotate(-180)"/></svg>