<?xml version="1.0" encoding="utf-8"?>
<!-- Generator: Adobe Illustrator 24.0.1, SVG Export Plug-In . SVG Version: 6.00 Build 0)  -->
<svg version="1.1" id="Layer_1" xmlns="http://www.w3.org/2000/svg" xmlns:xlink="http://www.w3.org/1999/xlink" x="0px" y="0px"
	 viewBox="0 0 391.9 792.4" style="enable-background:new 0 0 391.9 792.4;" xml:space="preserve">
<style type="text/css">
	.st0{fill:none;stroke:#1A1A1A;stroke-width:16;stroke-miterlimit:10;}
	.st1{fill:#1A1A1A;}
	.st2{fill-rule:evenodd;clip-rule:evenodd;fill:url(#SVGID_1_);}
</style>
<title>m2</title>
<path class="st0" d="M342.4,783.7l-291,0.7c-23,0-41.7-18.6-41.8-41.6L8,50.4c0-23,18.6-41.7,41.6-41.8l291-0.7
	c23,0,41.7,18.6,41.8,41.6L384,742C384,765,365.4,783.7,342.4,783.7L342.4,783.7z"/>
<path class="st1" d="M214.8,5.7c-0.7,1.5-2.1,2.6-4.3,2.6c-2.5,0-4-1.5-4.6-3.3c-0.6,0.3-1.3,0.4-2,0.4c-1.2,0-2.3-0.4-3-1
	c-0.8,0.8-1.9,1.3-3.4,1.3c-2.1,0-3.5-1-4.2-2.4c-0.7,1.6-2.1,2.8-4.4,2.8c-0.7,0-1.3-0.1-1.9-0.3C186.5,7.6,185,9,182.5,9
	c-2.2,0-3.6-1.2-4.3-2.7c-2.5,3.6-4,8-4,12.8v9.4c0,12.4,10.1,22.5,22.5,22.5s22.5-10.1,22.5-22.5v-9.4
	C219.2,14.1,217.6,9.4,214.8,5.7z"/>
<linearGradient id="SVGID_1_" gradientUnits="userSpaceOnUse" x1="195.95" y1="477.1209" x2="195.95" y2="318.4791" gradientTransform="matrix(1 0 0 -1 0 794)">
	<stop  offset="0" style="stop-color:#158FFF"/>
	<stop  offset="0.9427" style="stop-color:#00FFE0"/>
</linearGradient>
<path class="st2" d="M205.9,375.2c2.9,3.7-0.1,10.4-1.1,12.6c-8.9,20.3-43.9,31.2-74.6,45.7c-37.5,17.7-60,41.1-59.3,42
	s30.2-25.3,76.2-39.4c14.7-4.5,57.9-6.3,89.1-25.6c12.5-7.7,27.5-17.9,40.7-36.4c12.8-18,23-43,37.3-42.5c3.3,0.1,6.3,1.5,6.8,0.5
	c1.1-2.1-10.6-14.8-22.6-15.2c-18.5-0.7-28,26.4-45.7,31.5c-25.7,8.3-37.8-22.4-80.4-14.7c-29.7,7.9-26.2,40-56.7,51.5
	c-16.7,6.3-33.1,1.1-33.6,3.7c-0.8,4,30.4,22,57.2,12.6c17.7-6.2,24.2-21.1,49.6-27.3C200.2,371.4,204.3,373.1,205.9,375.2z"/>
</svg>
