<?xml version="1.0" encoding="utf-8"?>
<!-- Generator: Adobe Illustrator 24.0.1, SVG Export Plug-In . SVG Version: 6.00 Build 0)  -->
<svg version="1.1" id="Layer_1" xmlns="http://www.w3.org/2000/svg" xmlns:xlink="http://www.w3.org/1999/xlink" x="0px" y="0px"
	 viewBox="0 0 391.9 791.2" style="enable-background:new 0 0 391.9 791.2;" xml:space="preserve">
<style type="text/css">
	.st0{fill:#1A1A1A;}
	.st1{fill:none;stroke:#1A1A1A;stroke-width:16;stroke-miterlimit:10;}
	.st2{fill:#FFFFFF;}
	.st3{fill-rule:evenodd;clip-rule:evenodd;fill:url(#SVGID_1_);}
</style>
<title>m6</title>
<rect x="8" y="8" class="st0" width="375.9" height="73.7"/>
<path class="st0" d="M358.4,784.4H39.1c-17.2,0-31.1-13.9-31.1-31l0,0v-35.9l0,0h376l0,0v41.4C384,773,372.5,784.4,358.4,784.4
	L358.4,784.4z"/>
<path class="st1" d="M28.6,8h334.6c11.4,0,20.6,9.2,20.6,20.6v733.9c0,11.4-9.2,20.6-20.6,20.6H28.6c-11.4,0-20.6-9.2-20.6-20.6
	V28.6C8,17.2,17.2,8,28.6,8z"/>
<path class="st2" d="M27.1,62.5h337.8c8.3,0,15,6.7,15,15V736c0,8.3-6.7,15-15,15H27.1c-8.3,0-15-6.7-15-15V77.4
	C12.1,69.2,18.8,62.5,27.1,62.5z"/>
<linearGradient id="SVGID_1_" gradientUnits="userSpaceOnUse" x1="196.2953" y1="476.94" x2="196.2953" y2="318.2982" gradientTransform="matrix(1 0 0 -1 0 794)">
	<stop  offset="0" style="stop-color:#158FFF"/>
	<stop  offset="0.9427" style="stop-color:#00FFE0"/>
</linearGradient>
<path class="st3" d="M206.3,375.4c2.9,3.7-0.1,10.4-1.1,12.6c-8.9,20.3-43.9,31.2-74.6,45.7c-37.5,17.7-60,41.1-59.3,42
	s30.2-25.3,76.2-39.4c14.7-4.5,57.9-6.3,89.1-25.6c12.5-7.7,27.5-17.9,40.7-36.4c12.8-18,23-43,37.3-42.5c3.3,0.1,6.3,1.5,6.8,0.5
	c1.1-2.1-10.6-14.8-22.6-15.2c-18.5-0.7-28,26.4-45.7,31.5c-25.7,8.3-37.8-22.4-80.4-14.7c-29.7,7.9-26.2,40-56.7,51.5
	c-16.7,6.3-33.1,1.1-33.6,3.7c-0.8,4,30.4,22,57.2,12.6c17.7-6.2,24.2-21.1,49.6-27.3C200.5,371.6,204.6,373.3,206.3,375.4z"/>
</svg>
