<svg id="Layer_1" data-name="Layer 1" xmlns="http://www.w3.org/2000/svg" viewBox="0 0 391.92 792.39"><defs><style>.cls-1{fill:#1a1a1a;stroke:#1a1a1a;stroke-miterlimit:10;stroke-width:16px;}.cls-2{fill:#fff;}</style></defs><title>m1</title><path class="cls-1" d="M658.76,899.52l-290.94.69a41.67,41.67,0,0,1-41.77-41.57l-1.64-692.37A41.67,41.67,0,0,1,366,124.5l290.95-.68a41.66,41.66,0,0,1,41.76,41.56l1.64,692.38A41.67,41.67,0,0,1,658.76,899.52Z" transform="translate(-316.41 -115.82)"/><path class="cls-2" d="M650.2,869l-274.71.65c-21.73.05-39.38-17.1-39.43-38.29l-1.51-637.84c-.05-21.2,17.52-38.42,39.25-38.48l274.71-.64c21.73,0,39.38,17.09,39.43,38.29l1.51,637.83C689.5,851.71,671.93,868.94,650.2,869Z" transform="translate(-316.41 -115.82)"/></svg>