<?xml version="1.0" encoding="utf-8"?>
<!-- Generator: Adobe Illustrator 24.0.1, SVG Export Plug-In . SVG Version: 6.00 Build 0)  -->
<svg version="1.1" id="Layer_1" xmlns="http://www.w3.org/2000/svg" xmlns:xlink="http://www.w3.org/1999/xlink" x="0px" y="0px"
	 viewBox="0 0 391.9 792.4" style="enable-background:new 0 0 391.9 792.4;" xml:space="preserve">
<style type="text/css">
	.st0{fill:#1A1A1A;stroke:#1A1A1A;stroke-width:16;stroke-miterlimit:10;}
	.st1{fill:#FFFFFF;}
	.st2{fill-rule:evenodd;clip-rule:evenodd;fill:url(#SVGID_1_);}
</style>
<title>m1</title>
<path class="st0" d="M342.4,783.7l-290.9,0.7c-23,0.1-41.7-18.6-41.8-41.6l0,0L8,50.5C7.9,27.4,26.6,8.7,49.6,8.7l0,0l291-0.7
	c23-0.1,41.7,18.6,41.8,41.6l0,0L384,742C384,765,365.4,783.7,342.4,783.7L342.4,783.7z"/>
<path class="st1" d="M333.8,753.2l-274.7,0.7c-21.7,0-39.4-17.1-39.4-38.3L18.1,77.7c0-21.2,17.5-38.4,39.3-38.5l274.7-0.6
	c21.7,0,39.4,17.1,39.4,38.3l1.5,637.8C373.1,735.9,355.5,753.1,333.8,753.2z"/>
<linearGradient id="SVGID_1_" gradientUnits="userSpaceOnUse" x1="196.2953" y1="476.94" x2="196.2953" y2="318.2982" gradientTransform="matrix(1 0 0 -1 0 794)">
	<stop  offset="0" style="stop-color:#158FFF"/>
	<stop  offset="0.9427" style="stop-color:#00FFE0"/>
</linearGradient>
<path class="st2" d="M206.3,375.4c2.9,3.7-0.1,10.4-1.1,12.6c-8.9,20.3-43.9,31.2-74.6,45.7c-37.5,17.7-60,41.1-59.3,42
	s30.2-25.3,76.2-39.4c14.7-4.5,57.9-6.3,89.1-25.6c12.5-7.7,27.5-17.9,40.7-36.4c12.8-18,23-43,37.3-42.5c3.3,0.1,6.3,1.5,6.8,0.5
	c1.1-2.1-10.6-14.8-22.6-15.2c-18.5-0.7-28,26.4-45.7,31.5c-25.7,8.3-37.8-22.4-80.4-14.7c-29.7,7.9-26.2,40-56.7,51.5
	c-16.7,6.3-33.1,1.1-33.6,3.7c-0.8,4,30.4,22,57.2,12.6c17.7-6.2,24.2-21.1,49.6-27.3C200.5,371.6,204.6,373.3,206.3,375.4z"/>
</svg>
